<svg width="50" height="59" viewBox="0 0 50 59" fill="none" xmlns="http://www.w3.org/2000/svg">
<g clip-path="url(#clip0_286_836)">
<path d="M15.0455 58.3604C14.7045 58.3604 14.3652 58.3604 14.0241 58.3604C12.9123 58.2788 12.428 57.6442 12.191 56.7603C11.8516 55.4941 11.5191 54.2264 11.1815 52.9587C10.9922 52.25 10.8626 52.1941 10.1447 52.5205C8.80267 53.1325 7.50498 53.8184 6.14591 54.4032C5.12788 54.8414 4.13714 54.7265 3.3749 54.0859C2.65188 53.477 2.4643 52.5114 2.92301 51.6351C4.47989 48.657 6.04018 45.6819 7.61412 42.7113C8.44627 41.1414 9.25797 39.5609 10.0816 37.988C10.6153 36.9696 9.93665 35.6475 8.74469 35.3227C8.15468 35.1625 7.55443 35.0401 6.9559 34.9057C4.43214 34.3421 2.5939 31.9925 3.32374 29.4737C3.50961 28.8346 3.72106 28.2015 3.8967 27.5593C4.00754 27.1514 3.90864 26.8235 3.57441 26.5288C3.04579 26.0635 2.51375 25.6011 1.99877 25.1236C0.0121687 23.2818 -0.00829428 20.6678 1.94761 18.8033C2.42678 18.347 2.92301 17.9073 3.43458 17.4812C3.86089 17.1261 3.93251 16.7438 3.77733 16.2528C3.51984 15.4368 3.23166 14.627 3.10035 13.7808C2.7559 11.5703 4.43044 9.71329 6.29597 9.13156C7.07867 8.8883 7.87843 8.68583 8.69012 8.53624C9.28695 8.42594 9.60413 8.14037 9.7576 7.62362C9.96905 6.91195 10.1481 6.19424 10.4175 5.49618C11.2736 3.26901 13.7666 2.04513 16.35 2.59663C16.9503 2.72506 17.5539 2.84141 18.1337 3.02574C18.8619 3.25843 19.4331 3.13605 19.9498 2.60267C20.4187 2.11916 20.9951 1.71876 21.5135 1.27302C22.1359 0.739651 22.8572 0.514516 23.674 0.420836C23.8173 0.404216 23.9742 0.458611 24.1021 0.358887C24.6119 0.358887 25.1235 0.358887 25.6334 0.358887C27.1851 0.369463 28.2407 1.16574 29.2468 2.09499C30.5956 3.34154 30.3313 3.2131 32.1013 2.80212C33.2472 2.53619 34.3795 2.18414 35.6056 2.44251C37.5785 2.85954 38.866 3.9157 39.4594 5.62763C39.6726 6.23957 39.8704 6.85756 40.0256 7.48461C40.133 7.91826 40.4109 8.16455 40.9055 8.27485C41.7086 8.45314 42.5084 8.65108 43.303 8.85959C45.7347 9.49571 47.3206 11.8468 46.676 14.1283C46.5055 14.7327 46.3571 15.3416 46.1388 15.9339C45.953 16.4341 46.0672 16.8375 46.5055 17.2122C47.1466 17.7622 47.781 18.3167 48.342 18.9393C49.9841 20.757 49.8733 23.1851 48.0419 24.8547C47.5371 25.314 47.0256 25.7673 46.5106 26.2176C46.1576 26.5273 46.0485 26.8733 46.1815 27.2994C46.3912 27.9718 46.589 28.6472 46.7817 29.3241C47.4485 31.6661 45.8899 34.0504 43.1666 34.7092C42.4692 34.8785 41.77 35.0386 41.0777 35.2214C40.6497 35.3348 40.3803 35.5629 40.2813 35.9512C40.2626 36.0253 40.2882 35.9331 40.2643 36.0056C39.7152 37.639 39.7016 37.645 40.6582 39.4295C42.6124 43.0739 44.4779 46.7577 46.4407 50.3991C46.6692 50.8237 46.8789 51.2589 47.0972 51.688C47.5269 52.5326 47.324 53.4951 46.618 54.0859C45.8643 54.716 44.8718 54.8444 43.905 54.4274C42.5289 53.8335 41.2192 53.1249 39.8499 52.519C39.1286 52.2002 39.0007 52.2485 38.8131 52.9587C38.5198 54.0798 38.218 55.1995 37.9247 56.3206C37.8855 56.4672 37.8343 56.6122 37.7985 56.7588C37.5837 57.6472 37.0806 58.2773 35.9705 58.3589C35.6295 58.3589 35.2901 58.3589 34.9491 58.3589C34.001 58.2788 33.4587 57.7862 33.0801 57.0353C31.5335 53.9726 29.8896 50.9491 28.3123 47.8985C27.6745 46.664 26.9924 45.4477 26.3785 44.2041C26.1552 43.7524 25.8192 43.5106 25.2463 43.562C25.0775 43.5771 24.9035 43.5786 24.7364 43.559C24.189 43.497 23.8616 43.7176 23.6451 44.1528C23.0175 45.4114 22.3303 46.6474 21.684 47.8985C20.6575 49.8869 19.5951 51.8617 18.5669 53.8487C18.0263 54.8942 17.4346 55.9202 16.9401 56.9824C16.5803 57.759 16.0295 58.2849 15.0455 58.3604Z" fill="#264A3F"/>
<path d="M34.6816 37.2977C34.0473 37.1481 33.2987 37.0015 32.5722 36.7945C30.4663 36.1977 28.686 36.6208 27.1922 38.0607C26.7028 38.5322 26.1708 38.9688 25.6643 39.4266C25.2943 39.7606 24.943 39.7696 24.5679 39.4297C24.0034 38.9175 23.4253 38.4143 22.8541 37.9081C21.5189 36.7235 19.933 36.3609 18.1152 36.7809C17.3547 36.9562 16.5976 37.1406 15.837 37.3173C15.039 37.5032 14.8889 37.4231 14.6689 36.7039C14.4643 36.03 14.2665 35.3561 14.0517 34.6852C13.5657 33.1592 12.4419 32.1906 10.7367 31.754C9.9011 31.5394 9.05701 31.349 8.21292 31.1586C7.67747 31.0378 7.47455 30.7794 7.63484 30.2868C7.87528 29.5449 8.10208 28.797 8.30159 28.046C8.68868 26.5789 8.32035 25.2749 7.14715 24.1765C6.53326 23.6008 5.88356 23.0553 5.25774 22.4902C4.77175 22.0505 4.77516 21.848 5.26968 21.4023C5.83582 20.8916 6.42071 20.3945 6.98003 19.8777C8.22656 18.7249 8.65287 17.3726 8.19075 15.8148C7.98442 15.1227 7.77297 14.4307 7.56663 13.7387C7.35348 13.024 7.44556 12.8789 8.23509 12.6886C8.99392 12.5057 9.75445 12.335 10.5099 12.1431C12.2185 11.7079 13.3337 10.7304 13.8249 9.21032C14.0653 8.46692 14.3006 7.72352 14.507 6.97257C14.6468 6.46338 14.9333 6.28206 15.5216 6.44071C16.2923 6.64923 17.0784 6.81543 17.8594 6.99675C19.6363 7.40924 21.1795 7.03301 22.4926 5.90432C23.1184 5.3649 23.7323 4.81642 24.3393 4.26039C24.7128 3.9174 25.0555 3.91589 25.429 4.25736C25.9917 4.7726 26.5681 5.27576 27.1376 5.78344C28.4711 6.97408 30.0604 7.32614 31.8782 6.91365C32.6814 6.73233 33.4862 6.55555 34.2758 6.33646C34.8692 6.17176 35.1574 6.36819 35.3006 6.86227C35.5121 7.59207 35.7252 8.32187 35.9622 9.04713C36.4448 10.5233 37.5362 11.4768 39.1886 11.9134C40.0429 12.1386 40.9074 12.338 41.772 12.5284C42.3518 12.6568 42.5206 12.9454 42.3569 13.4486C42.1216 14.1723 41.8999 14.9021 41.7038 15.6349C41.3031 17.1248 41.6918 18.4408 42.8855 19.5499C43.5028 20.1225 44.1372 20.6801 44.7817 21.2301C45.1876 21.5776 45.1995 21.8934 44.7937 22.2439C44.2156 22.7441 43.6495 23.2578 43.0816 23.767C41.7737 24.938 41.3337 26.316 41.8214 27.9176C42.0431 28.6459 42.2563 29.3757 42.4797 30.1025C42.6246 30.5739 42.4643 30.858 41.9016 30.9758C41.1172 31.142 40.3413 31.343 39.5637 31.5334C37.7715 31.9715 36.629 32.9899 36.1379 34.581C35.9077 35.3259 35.6877 36.0738 35.4643 36.8217C35.3688 37.1254 35.1812 37.3234 34.6816 37.2977Z" fill="white"/>
<path d="M34.8075 50.9765C34.6626 50.7348 34.5688 50.5942 34.4921 50.4477C32.9369 47.4922 31.3834 44.5353 29.8385 41.5753C29.7361 41.3788 29.4309 41.1522 29.7583 40.9286C30.1812 40.64 30.3807 40.0159 31.1379 40.2109C31.8916 40.4058 32.6572 40.5659 33.4143 40.7503C34.2925 40.9648 35.1759 41.0253 36.0558 40.7971C36.3934 40.7095 36.5383 40.7941 36.6799 41.0661C37.836 43.2917 39.0092 45.5113 40.1705 47.7355C40.2336 47.8579 40.4109 48.0029 40.2234 48.1374C40.0835 48.2371 39.9437 48.1132 39.8175 48.0543C39.3469 47.8352 38.8882 47.5965 38.4107 47.3895C37.142 46.838 35.817 47.3683 35.4572 48.5786C35.2338 49.3401 35.0428 50.1107 34.8075 50.9765Z" fill="white"/>
<path d="M15.1942 50.9992C14.9555 50.1213 14.7679 49.3885 14.5564 48.6602C14.1727 47.3351 12.8665 46.8183 11.4955 47.4242C10.9004 47.6871 10.3615 48.0694 9.57031 48.222C9.72549 47.9198 9.83121 47.7113 9.94035 47.5028C11.0522 45.3829 12.1674 43.2645 13.2707 41.1416C13.4122 40.8697 13.5299 40.717 13.9289 40.8425C14.8583 41.1371 15.8064 41.0933 16.7511 40.8591C17.5491 40.6611 18.3574 40.498 19.1469 40.2774C19.7131 40.1187 19.9467 40.4844 20.2741 40.7382C20.6066 40.9966 20.3457 41.2247 20.2315 41.4438C18.666 44.437 17.0921 47.4273 15.5199 50.4175C15.4414 50.5716 15.3528 50.7197 15.1942 50.9992Z" fill="white"/>
<path d="M24.9583 34.1459C17.2114 34.1066 11.0521 28.5658 11.1152 21.6925C11.1749 14.9535 17.4741 9.47779 25.1016 9.52917C32.7513 9.58054 38.9311 15.1424 38.885 21.9342C38.8407 28.6943 32.579 34.1851 24.9583 34.1459Z" fill="#264A3F"/>
<path d="M24.9991 30.5269C19.6532 30.5496 15.2213 26.6589 15.194 21.9159C15.165 17.1216 19.5441 13.1674 24.8951 13.1538C30.3808 13.1402 34.7923 17.0159 34.7957 21.851C34.8008 26.6302 30.4269 30.5028 24.9991 30.5269Z" fill="white"/>
</g>
<defs>
<clipPath id="clip0_286_836">
<rect width="49" height="58" fill="white" transform="translate(0.5 0.360596)"/>
</clipPath>
</defs>
</svg>
