<svg width="61" height="62" viewBox="0 0 61 62" fill="none" xmlns="http://www.w3.org/2000/svg">
<g clip-path="url(#clip0_286_742)">
<path d="M30.7814 45.633C22.8441 45.6718 16.2659 39.1533 16.2238 31.2061C16.1818 23.1732 22.6824 16.5479 30.6261 16.5252C38.7704 16.5026 45.3179 22.9952 45.3244 31.0977C45.3309 39.1047 38.8384 45.5942 30.7814 45.633Z" fill="white"/>
<path d="M16.9259 47.6068C16.0183 47.3156 15.321 46.7348 14.7305 46.01C14.8728 45.7754 15.1123 45.7301 15.355 45.7009C15.575 45.6751 15.7983 45.6799 16.0199 45.6799C25.6737 45.6799 35.3275 45.6783 44.9813 45.6848C45.4295 45.6848 45.9245 45.5747 46.2708 46.01C45.6802 46.7348 44.9846 47.3172 44.0753 47.6052C35.025 47.6748 25.9746 47.6716 16.9259 47.6068Z" fill="#264A3F"/>
<path d="M46.2687 46.0084C45.9209 45.8951 45.5634 45.8725 45.1977 45.8725C35.3983 45.8773 25.5989 45.8773 15.7979 45.8725C15.4322 45.8725 15.0763 45.8967 14.7268 46.0084C14.303 45.5942 13.9794 45.1153 13.7998 44.5458C14.1056 44.3468 14.4534 44.3565 14.7948 44.3565C18.5272 44.3565 22.2596 44.3403 25.9904 44.3646C26.2137 44.3662 26.4353 44.3824 26.6327 44.2481C26.7896 44.1915 26.9498 44.2076 27.1067 44.2448C29.3734 44.769 31.64 44.7707 33.9066 44.2416C34.083 44.1995 34.2626 44.1801 34.4421 44.2384C34.6638 44.3646 34.9032 44.3516 35.1475 44.3516C38.8573 44.3516 42.5655 44.3468 46.2752 44.3549C46.5907 44.3549 46.9272 44.2934 47.1942 44.5458C47.0178 45.1153 46.6942 45.5942 46.2687 46.0084Z" fill="#264A3F"/>
<path d="M46.5972 16.1399C46.9919 16.5298 47.1828 17.0265 47.3268 17.5475C47.0405 17.8096 46.6845 17.7384 46.3496 17.74C42.936 17.7481 39.5206 17.74 36.1069 17.7433C35.8837 17.7433 35.6685 17.7578 35.4533 17.8129C35.167 17.8501 34.8984 17.7595 34.6282 17.6834C31.5187 16.8049 28.4447 16.8664 25.4112 18.0248C25.1847 18.1105 24.9566 18.185 24.7091 18.1704C24.2917 18.0717 23.8678 18.1089 23.4455 18.1089C20.5253 18.1041 17.605 18.1073 14.6848 18.1057C14.4437 18.1057 14.1994 18.1186 13.9632 18.062C13.6849 17.9957 13.5264 17.8533 13.6704 17.5443C13.7723 16.9926 14.0603 16.5363 14.4017 16.106C16.0745 16.1788 17.749 16.1383 19.4235 16.1399C28.2797 16.1416 37.1375 16.148 45.9937 16.1351C46.196 16.1335 46.3966 16.1852 46.5972 16.1399Z" fill="#264A3F"/>
<path d="M46.5972 16.1401C46.5147 16.4248 46.2753 16.3342 46.0925 16.3342C35.7074 16.3375 25.3239 16.3375 14.9388 16.3342C14.7415 16.3342 14.4697 16.4426 14.4033 16.1061C14.7188 15.611 15.1394 15.2179 15.6054 14.8684C16.0665 14.9283 16.5292 14.9299 16.9919 14.9315C26.4192 14.9364 35.8449 14.9202 45.2722 14.938C45.311 14.938 45.3499 14.9186 45.3887 14.9072C45.9161 15.1968 46.2753 15.6499 46.5972 16.1401Z" fill="#264A3F"/>
<path d="M45.3888 14.9071C45.2658 15.2841 44.9471 15.119 44.7206 15.119C36.7396 15.1287 28.7603 15.1271 20.7794 15.1271C19.2473 15.1271 17.7168 15.1304 16.1847 15.1223C15.9679 15.1207 15.6718 15.2404 15.6055 14.8683C16.8965 13.7665 18.4222 13.6063 20.0142 13.8279C20.9833 13.9622 21.9265 13.9461 22.8681 13.7034C23.2078 13.8668 23.5767 13.8457 23.9359 13.8457C28.3138 13.8522 32.6901 13.8522 37.0681 13.8441C37.424 13.8441 37.7977 13.9056 38.131 13.7034C39.0758 13.9493 40.0223 13.9639 40.993 13.8279C42.2841 13.6467 43.5606 13.7082 44.7303 14.3991C44.973 14.5414 45.2059 14.6903 45.3888 14.9071Z" fill="#264A3F"/>
<path d="M16.9258 47.6067C17.0827 47.3753 17.3254 47.4546 17.5357 47.4546C26.1784 47.4514 34.821 47.4514 43.4636 47.4546C43.674 47.4546 43.915 47.3753 44.0752 47.6051C43.1336 48.0872 42.1127 48.063 41.129 47.9093C39.5532 47.6617 38.0972 47.8737 36.7236 48.681C36.3919 48.8218 36.0457 48.7392 35.706 48.7392C32.0949 48.7473 28.4838 48.715 24.8727 48.7587C24.6689 48.7603 24.4699 48.7554 24.2774 48.681C22.9054 47.8737 21.4493 47.6633 19.8735 47.9093C18.8883 48.0613 17.869 48.084 16.9258 47.6067Z" fill="#264A3F"/>
<path d="M38.1311 13.7019C38.081 14.1565 37.7056 14.019 37.4645 14.0255C36.5003 14.0514 35.536 14.0368 34.5702 14.0368C30.9316 14.0368 27.2946 14.0384 23.6561 14.0352C23.3535 14.0352 23.0057 14.108 22.8682 13.7019C23.5444 13.4948 24.135 13.1324 24.6899 12.7053C25.1267 12.6373 25.5668 12.6308 26.0101 12.6308C28.9222 12.6341 31.8344 12.6357 34.7465 12.6308C35.2691 12.6292 35.7901 12.6341 36.3029 12.7392C36.9112 13.0596 37.4192 13.5741 38.1311 13.7019Z" fill="#264A3F"/>
<path d="M13.6724 17.5444C13.6497 18.0136 13.9976 17.9085 14.2581 17.9101C17.4501 17.9133 20.6405 17.9149 23.8326 17.9085C24.1772 17.9085 24.5105 17.9408 24.8373 18.0444C24.8357 18.0638 24.8405 18.0961 24.8308 18.1026C23.907 18.7158 23.0301 19.4131 21.9348 19.7221C19.4223 19.6234 16.9114 19.706 14.4004 19.6768C14.0623 19.6736 13.7112 19.7254 13.4168 19.4859C13.3731 18.821 13.3763 18.1625 13.6724 17.5444Z" fill="#264A3F"/>
<path d="M24.2773 48.6795C24.6252 48.5695 24.9779 48.5355 25.3435 48.5372C28.7815 48.5436 32.2194 48.5436 35.6558 48.5372C36.0214 48.5372 36.3757 48.5679 36.722 48.6795C36.2447 49.0986 35.7561 49.5079 35.3452 49.9965C35.1316 50.0661 34.9116 50.0709 34.6899 50.0709C31.8959 50.0629 29.1034 50.0645 26.3094 50.0709C26.0877 50.0709 25.8677 50.0661 25.6541 49.9965C25.2416 49.5095 24.7595 49.0937 24.2773 48.6795Z" fill="#264A3F"/>
<path d="M52.3878 30.9925C52.3991 31.8484 52.2389 32.6638 51.7924 33.4081C51.6694 33.4906 51.5319 33.5035 51.3896 33.5003C49.2621 33.4566 47.1346 33.4954 45.0071 33.4777C44.7676 33.476 44.5233 33.4809 44.3082 33.3401C44.2143 33.2544 44.1528 33.1395 44.1658 33.0214C44.279 32.028 44.182 31.0281 44.2758 30.0347C44.2839 29.9555 44.326 29.8843 44.3713 29.8163C44.5023 29.695 44.567 29.8018 44.6366 29.894C44.7256 30.0817 44.7191 30.2839 44.7272 30.4861C44.7595 31.2627 44.7741 31.2805 45.5749 31.2821C47.4889 31.2854 49.4012 31.2724 51.3151 31.2919C51.718 31.2967 52.0513 31.1673 52.3878 30.9925Z" fill="#264A3F"/>
<path d="M8.61191 30.9924C8.565 30.4407 8.60868 29.8987 8.81091 29.3777C11.05 29.5621 13.2924 29.4165 15.5315 29.4651C15.868 29.4731 16.2159 29.4198 16.5346 29.5864C16.6009 29.6365 16.6398 29.7029 16.6495 29.7854C16.6252 30.1268 16.6349 30.4682 16.6268 30.8112C16.6106 31.5182 16.4925 31.646 15.7694 31.6589C14.7841 31.6783 13.7988 31.6654 12.8135 31.6654C11.6664 31.6654 10.521 31.6654 9.37393 31.6654C8.91122 31.6622 8.57632 31.5441 8.61191 30.9924Z" fill="#264A3F"/>
<path d="M16.5585 29.6544C14.2191 29.6544 11.8796 29.656 9.5402 29.6527C9.26517 29.6527 8.95777 29.7207 8.81055 29.3761C8.91085 28.6885 9.22957 28.1076 9.67611 27.5867C11.7276 27.7129 13.7806 27.6158 15.8337 27.6482C16.1524 27.653 16.4808 27.6077 16.7818 27.7646C17.1037 28.4409 16.8659 29.0525 16.5585 29.6544Z" fill="#264A3F"/>
<path d="M35.2949 17.6933C35.6395 17.5719 35.9938 17.5444 36.3595 17.5444C40.0159 17.5509 43.6722 17.5477 47.3286 17.5477C47.5227 17.9295 47.5972 18.334 47.568 18.7595C47.2768 19.007 46.9225 18.9504 46.586 18.9504C44.0929 18.9553 41.6014 18.952 39.1082 18.9536C38.7264 18.9536 38.3446 18.9488 37.966 18.9989C37.2606 18.952 36.7235 18.4958 36.1136 18.2191C35.8223 18.0864 35.4292 18.08 35.2949 17.6933Z" fill="#264A3F"/>
<path d="M26.6261 44.3207C26.7086 44.7511 26.364 44.5327 26.2459 44.5327C24.2495 44.5489 22.2546 44.544 20.2582 44.544C18.1064 44.544 15.9547 44.544 13.8029 44.5456C13.5845 44.1735 13.4858 43.7658 13.4551 43.3387C13.6816 43.2189 13.9275 43.2642 14.1669 43.2642C17.1826 43.2626 20.1983 43.2675 23.2157 43.261C23.4147 43.261 23.6185 43.2966 23.811 43.2141C23.921 43.1591 24.0456 43.1283 24.1556 43.1801C24.9759 43.5652 25.856 43.8257 26.6261 44.3207Z" fill="#264A3F"/>
<path d="M16.817 27.8391C14.6637 27.8391 12.5103 27.8407 10.3569 27.8375C10.1029 27.8375 9.81815 27.9038 9.67578 27.5883C10.1789 26.7907 10.9555 26.2972 11.6933 25.7601C13.5619 25.6954 15.4321 25.6436 17.2992 25.7892C17.372 25.8248 17.4707 25.8798 17.4561 25.9526C17.3283 26.6095 17.3299 27.3117 16.817 27.8391Z" fill="#264A3F"/>
<path d="M23.9636 43.2433C23.8941 43.5346 23.6546 43.452 23.4702 43.452C20.3267 43.4553 17.1815 43.4537 14.038 43.4569C13.8342 43.4569 13.6352 43.4569 13.4556 43.3404C13.3941 42.9359 13.3617 42.5315 13.4248 42.1254C13.6983 41.8956 14.0299 41.9361 14.3486 41.9361C16.5004 41.9312 18.6538 41.9344 20.8055 41.9344C21.1081 41.9344 21.409 41.9247 21.7067 41.8843C21.8394 41.8228 21.9817 41.8002 22.1047 41.8827C22.7421 42.3098 23.4249 42.6787 23.9636 43.2433Z" fill="#264A3F"/>
<path d="M49.9889 26.2988C50.7283 26.768 51.3172 27.3764 51.7038 28.1675C51.7038 28.5008 51.4272 28.4911 51.233 28.4927C48.9519 28.5089 46.6707 28.5801 44.3895 28.4604C43.9284 28.1125 43.6275 26.9978 43.8442 26.4428C44.1225 26.2826 44.4299 26.3199 44.7308 26.3166C46.483 26.3037 48.2351 26.3393 49.9889 26.2988Z" fill="#264A3F"/>
<path d="M8.61146 30.9924C8.70853 31.3694 8.92532 31.4891 9.33464 31.4842C11.501 31.4567 13.6673 31.4567 15.8336 31.4826C16.3416 31.4891 16.4986 31.3305 16.471 30.8355C16.4516 30.4876 16.3594 30.1155 16.5536 29.7773C16.7558 29.9278 16.7623 30.1543 16.7639 30.3711C16.7704 31.1445 16.7995 31.9195 16.7493 32.6928C16.7121 33.0261 16.5115 33.2105 16.1912 33.2138C13.842 33.238 11.4929 33.3028 9.14535 33.1814C9.06608 33.1766 9.16638 33.1814 9.08711 33.1652C8.72471 32.4841 8.5969 31.7528 8.61146 30.9924Z" fill="#264A3F"/>
<path d="M52.3873 30.9924C52.2919 31.3759 52.0686 31.4875 51.6609 31.4826C49.5075 31.4567 47.3525 31.4519 45.1991 31.4826C44.6555 31.4907 44.4711 31.3273 44.5358 30.8015C44.573 30.5038 44.5439 30.198 44.5439 29.8955C44.7688 29.669 45.0632 29.7029 45.3399 29.7029C47.3913 29.6965 49.4412 29.6981 51.4926 29.7013C51.7741 29.7013 52.0605 29.6932 52.2935 29.8971C52.452 30.2514 52.4083 30.6219 52.3873 30.9924Z" fill="#264A3F"/>
<path d="M52.2935 29.8971C49.7098 29.8971 47.1277 29.8971 44.5439 29.8971C44.5116 29.8567 44.4776 29.8162 44.4452 29.7758C44.167 29.3179 44.0246 28.8455 44.2835 28.3277C46.5339 28.3261 48.7844 28.3277 51.0348 28.3197C51.2629 28.3197 51.525 28.4119 51.7046 28.1692C52.1139 28.6707 52.177 29.2936 52.2935 29.8971Z" fill="#264A3F"/>
<path d="M37.7607 18.8808C38.0892 18.7773 38.4241 18.7546 38.7687 18.7546C41.7019 18.7611 44.6351 18.7579 47.5682 18.7579C47.6459 19.2044 47.6168 19.6493 47.5504 20.0926C47.3725 20.3823 47.0861 20.2755 46.8386 20.2787C44.4846 20.3014 42.1306 20.2221 39.7782 20.3256C38.9547 20.0554 38.2833 19.5701 37.7607 18.8808Z" fill="#264A3F"/>
<path d="M39.5886 20.2091C39.896 20.1153 40.2098 20.0862 40.5334 20.0862C42.8712 20.0943 45.209 20.0927 47.5485 20.0927C47.5064 20.4567 47.466 20.8207 47.4239 21.1847C47.3398 21.9371 47.3187 21.9549 46.5438 21.9694C44.8547 22.0034 43.1657 21.9015 41.4783 22.0374C41.2679 22.0374 41.0786 21.9662 40.946 21.8044C40.5512 21.3239 40.116 20.8838 39.6501 20.4729C39.5756 20.4098 39.5336 20.3159 39.5886 20.2091Z" fill="#264A3F"/>
<path d="M47.1972 44.5456C43.1752 44.5456 39.1548 44.5472 35.1328 44.5423C34.8642 44.5423 34.5552 44.6378 34.374 44.3207C35.17 43.8224 36.0178 43.4486 36.948 43.282C37.3444 43.3629 37.744 43.3888 38.1469 43.3888C40.8989 43.3871 43.6525 43.3839 46.4045 43.392C46.7863 43.3936 47.1616 43.3062 47.5434 43.3402C47.5143 43.7674 47.4156 44.1734 47.1972 44.5456Z" fill="#264A3F"/>
<path d="M36.3009 12.7392C36.1439 12.8719 35.9546 12.825 35.7783 12.825C32.2708 12.8266 28.7632 12.8282 25.2557 12.8234C25.0632 12.8234 24.8464 12.8897 24.6895 12.7053C25.0842 12.2862 25.479 11.8688 25.8721 11.4498C28.9558 11.6051 32.0394 11.6116 35.1214 11.4465C35.5453 11.8494 35.8301 12.3801 36.3009 12.7392Z" fill="#264A3F"/>
<path d="M13.4168 19.486C15.9941 19.486 18.5713 19.4892 21.1486 19.4827C21.4932 19.4811 21.8281 19.5086 22.1581 19.6105C22.0238 20.1477 21.5126 20.3289 21.1599 20.6541C20.9043 20.8887 20.6713 21.2042 20.2474 21.1476C18.3254 21.112 16.405 21.1427 14.483 21.1281C14.1675 21.1265 13.8358 21.1799 13.5673 20.9405C13.4508 20.4599 13.3861 19.9778 13.4168 19.486Z" fill="#264A3F"/>
<path d="M17.406 25.9008C15.7542 25.9008 14.1024 25.8992 12.4521 25.9024C12.1884 25.9024 11.9279 25.9008 11.6934 25.7584C12.3065 25.1614 12.7887 24.469 13.1866 23.7134C14.7252 23.6001 16.2638 23.6519 17.804 23.6907C17.9448 23.694 18.0775 23.7522 18.1956 23.8299C18.2991 23.9059 18.3832 24.0159 18.3412 24.1357C18.1098 24.7683 17.9221 25.4219 17.406 25.9008Z" fill="#264A3F"/>
<path d="M47.545 43.3403C47.3929 43.5814 47.1583 43.5798 46.9092 43.5798C43.8255 43.5749 40.7419 43.5749 37.6598 43.5798C37.3492 43.5798 37.0645 43.5167 36.7959 43.3678C37.3735 42.8404 37.9316 42.2774 38.7923 42.2563C41.3939 42.347 43.9954 42.2709 46.5969 42.2984C46.9351 42.3016 47.2894 42.2483 47.5838 42.4893C47.5693 42.7725 47.5563 43.0572 47.545 43.3403Z" fill="#264A3F"/>
<path d="M25.6553 49.9947C25.8543 49.875 26.0743 49.8701 26.2976 49.8701C29.0997 49.8717 31.9019 49.8717 34.704 49.8701C34.9289 49.8701 35.1473 49.875 35.3463 49.9947C35.1052 50.3959 34.8253 50.7664 34.471 51.0755C34.2138 51.2745 33.9112 51.2777 33.6087 51.2777C31.5572 51.2793 29.5074 51.2793 27.456 51.2777C27.1324 51.2777 26.812 51.2583 26.5289 51.0755C26.173 50.7664 25.8963 50.3959 25.6553 49.9947Z" fill="#264A3F"/>
<path d="M44.3016 33.2867C46.4841 33.2867 48.6666 33.29 50.8491 33.2835C51.1727 33.2819 51.485 33.3094 51.7924 33.4081C51.5416 33.9792 51.1727 34.4597 50.6906 34.8545C50.5304 34.9597 50.3492 34.958 50.168 34.9532C48.4013 34.9063 46.6346 34.9516 44.8679 34.9273C44.5395 34.9225 44.1674 34.9936 43.9554 34.6183C43.8891 34.1264 43.8729 33.6492 44.3016 33.2867Z" fill="#264A3F"/>
<path d="M35.123 11.4448C34.9483 11.7247 34.67 11.7377 34.382 11.7377C31.7935 11.736 29.2065 11.736 26.6179 11.7377C26.3299 11.7377 26.0533 11.7199 25.8721 11.4497C26.1228 11.0371 26.4108 10.6569 26.8201 10.3835C27.6226 10.2718 28.4299 10.3527 29.234 10.3398C30.8632 10.3155 32.494 10.3624 34.1232 10.3171C34.5616 10.6003 34.8286 11.0339 35.123 11.4448Z" fill="#264A3F"/>
<path d="M21.9041 41.9133C21.731 42.1932 21.4495 42.1221 21.1955 42.1221C18.6053 42.1253 16.0135 42.1237 13.4233 42.1237C13.3812 41.6318 13.4928 41.1545 13.5705 40.6756C13.7792 40.5656 14.0041 40.6077 14.2241 40.6077C15.918 40.6077 17.6103 40.6061 19.3042 40.6077C19.5873 40.6077 19.8688 40.5883 20.1455 40.5333C20.2393 40.5009 20.3574 40.4605 20.4318 40.5171C20.9706 40.9313 21.6129 41.2403 21.9041 41.9133Z" fill="#264A3F"/>
<path d="M13.5344 39.2245C13.3451 38.6032 13.1671 37.9787 12.8613 37.4011C13.0361 37.1649 13.2982 37.1147 13.5586 37.1115C15.005 37.0937 16.4498 37.0532 17.8945 37.1309C18.5125 37.4625 19.239 38.7456 19.0966 39.2584C18.8879 39.4073 18.6452 39.4073 18.4058 39.4089C17.0273 39.417 15.6505 39.4137 14.2721 39.4105C14.0132 39.4089 13.7528 39.4008 13.5344 39.2245Z" fill="#264A3F"/>
<path d="M9.08691 33.1621C9.32312 33.0084 9.59007 33.0456 9.85055 33.044C11.9069 33.0424 13.9632 33.0424 16.0195 33.0456C16.3107 33.0456 16.61 33.078 16.5954 32.646C16.9805 33.0602 17.1277 33.9484 16.8964 34.4516C16.6359 34.5907 16.3511 34.5632 16.0712 34.5681C14.1864 34.5972 12.3 34.5131 10.4152 34.6166C10.2485 34.6263 10.0965 34.5972 9.96056 34.4969C9.56742 34.1167 9.26326 33.6815 9.08691 33.1621Z" fill="#264A3F"/>
<path d="M13.5352 39.2243C15.1805 39.2227 16.8259 39.2243 18.4713 39.2146C18.6994 39.213 18.9615 39.31 19.1378 39.0625C19.7251 39.3926 20.136 39.8698 20.3464 40.5138C20.2509 40.7694 20.0406 40.7953 19.8076 40.7953C17.8824 40.792 15.9571 40.792 14.0318 40.7953C13.8652 40.7953 13.7164 40.7548 13.5724 40.6772C13.5594 40.1918 13.5481 39.708 13.5352 39.2243Z" fill="#264A3F"/>
<path d="M49.9885 26.2989C49.8753 26.6419 49.5841 26.4995 49.3721 26.4995C47.5213 26.5108 45.6704 26.506 43.818 26.506C43.3407 26.0999 43.2598 25.498 43.0608 24.9576C43.0123 24.825 43.1191 24.7441 43.2356 24.6939C44.4765 24.537 45.7222 24.647 46.9647 24.6292C47.4226 24.6227 47.8869 24.5305 48.3415 24.6696C48.8641 25.2391 49.3058 25.8912 49.9885 26.2989Z" fill="#264A3F"/>
<path d="M26.5293 51.0754C29.1761 51.0754 31.8246 51.0754 34.4714 51.0754C32.5073 53.3567 28.5824 53.3567 26.5293 51.0754Z" fill="#264A3F"/>
<path d="M47.4258 39.708C47.4372 40.1788 47.4485 40.6496 47.4598 41.1204C47.5763 41.3971 47.3919 41.4829 47.1848 41.5411C46.9696 41.601 46.7463 41.5913 46.5247 41.5913C44.6334 41.5929 42.7405 41.5945 40.8492 41.5896C40.5693 41.5896 40.283 41.6091 40.0209 41.4731C39.9545 41.4246 39.8914 41.3631 39.8979 41.279C39.927 40.868 40.9463 39.8649 41.3896 39.8018C42.8473 39.975 44.3115 39.8423 45.7724 39.8779C46.3289 39.8941 46.892 39.9264 47.4258 39.708Z" fill="#264A3F"/>
<path d="M58.0886 31.7123C57.4237 31.7123 56.7587 31.722 56.0938 31.7091C55.4952 31.6977 55.1198 31.3596 55.1231 30.8597C55.1263 30.3614 55.5016 30.0248 56.1019 30.02C57.4123 30.0103 58.7228 30.0103 60.0317 30.02C60.619 30.0248 61.0024 30.3743 61.0008 30.8678C60.9975 31.3596 60.6141 31.6994 60.0236 31.7091C59.3781 31.7204 58.7325 31.7123 58.0886 31.7123Z" fill="#264A3F"/>
<path d="M2.92768 31.7125C2.26274 31.7125 1.59779 31.7222 0.932852 31.7093C0.382778 31.698 0.0122868 31.3582 -0.000656128 30.8874C-0.0135991 30.3907 0.366599 30.0267 0.949031 30.0218C2.27892 30.0121 3.6088 30.0105 4.93869 30.0218C5.50009 30.0267 5.86087 30.3648 5.87543 30.8421C5.88999 31.342 5.51303 31.6963 4.92251 31.7077C4.25757 31.7222 3.59262 31.7125 2.92768 31.7125Z" fill="#264A3F"/>
<path d="M39.9234 41.2272C40.0156 41.4003 40.179 41.3971 40.3408 41.3971C42.5654 41.3971 44.79 41.3971 47.0161 41.3987C47.2248 41.3987 47.4287 41.402 47.4594 41.1221C47.6293 41.5654 47.5986 42.0281 47.5824 42.4876C44.7948 42.4876 42.0088 42.4908 39.2213 42.4811C39.0093 42.4811 38.7181 42.6219 38.6113 42.274C38.9236 41.7676 39.3038 41.347 39.9234 41.2272Z" fill="#264A3F"/>
<path d="M41.2588 21.9111C43.0287 21.6409 44.8084 21.8237 46.5832 21.8027C47.0831 21.7962 47.3501 21.6749 47.4245 21.1863C47.4196 21.9208 47.4876 22.6472 47.6849 23.3591C47.439 23.5986 47.1252 23.5387 46.8307 23.5436C45.4102 23.5662 43.9881 23.5112 42.5676 23.584C41.8461 23.2523 41.5047 22.6181 41.2588 21.9111Z" fill="#264A3F"/>
<path d="M9.95898 34.4969C12.2806 34.2396 14.6087 34.4402 16.9336 34.3771C17.3623 34.8091 17.4691 35.3285 17.2281 35.8009C16.8996 35.9384 16.5534 35.8931 16.212 35.898C14.8207 35.9141 13.4293 35.8737 12.0396 35.9206C11.8584 35.9271 11.6755 35.9255 11.5138 35.8235C10.9507 35.4336 10.3764 35.0567 9.95898 34.4969Z" fill="#264A3F"/>
<path d="M11.5127 35.8235C13.192 35.5792 14.8827 35.7669 16.5669 35.7087C16.829 35.699 17.0895 35.699 17.3516 35.6941C17.7884 36.1326 18.0553 36.6438 18.0408 37.278C16.8112 37.2797 15.5832 37.2813 14.3537 37.2797C13.8521 37.278 13.349 37.2619 12.8604 37.401C12.4818 36.8153 12.0239 36.2976 11.5127 35.8235Z" fill="#264A3F"/>
<path d="M18.3025 23.974C17.1732 23.7086 16.0262 23.9157 14.8888 23.8397C14.321 23.8008 13.7353 23.9885 13.1836 23.7151C13.3098 23.233 13.436 22.7524 13.5606 22.2703C13.7353 22.1037 13.9586 22.0859 14.1818 22.0842C15.6719 22.0761 17.1619 22.0729 18.6536 22.0859C18.8558 22.0875 19.0564 22.1053 19.2376 22.2088C19.3606 22.2929 19.4561 22.4175 19.3752 22.555C19.0742 23.0679 18.8704 23.6601 18.3025 23.974Z" fill="#264A3F"/>
<path d="M19.3506 22.3883C19.1354 22.2475 18.8927 22.2702 18.6549 22.2702C16.9578 22.2702 15.2606 22.2702 13.5635 22.2702C13.5667 22.1877 13.5699 22.1052 13.5748 22.0226C13.6428 21.7444 13.6395 21.4661 13.5764 21.1862C13.5732 21.1037 13.5699 21.0212 13.5683 20.9387C15.6214 20.9387 17.6729 20.9403 19.7259 20.937C19.9896 20.937 20.2501 20.9322 20.4863 21.0713C20.2728 21.6521 19.9411 22.1327 19.3506 22.3883Z" fill="#264A3F"/>
<path d="M48.1376 37.4009C47.9418 37.8863 47.7477 38.37 47.5519 38.8554C47.361 39.0431 47.1151 39.0431 46.874 39.0431C45.5069 39.0512 44.1415 39.0512 42.7744 39.0431C42.5527 39.0415 42.3311 39.0334 42.1402 38.8942C42.0674 38.8182 42.0043 38.7146 42.0431 38.624C42.2858 38.061 42.4783 37.4591 43.072 37.1388C44.5524 37.0433 46.0327 37.0983 47.5131 37.1081C47.7574 37.1097 47.9984 37.1598 48.1376 37.4009Z" fill="#264A3F"/>
<path d="M34.125 10.3173C33.9891 10.5519 33.7593 10.526 33.5393 10.526C31.5121 10.526 29.4849 10.5244 27.4561 10.5276C27.228 10.5276 27.0193 10.4888 26.8203 10.382C28.4269 8.71554 31.6885 8.4502 33.5458 9.82704C33.7496 9.98074 33.8451 10.2574 34.125 10.3173Z" fill="#264A3F"/>
<path d="M48.1373 37.401C47.7329 37.2344 47.3057 37.2829 46.8867 37.2813C45.5779 37.2781 44.2674 37.2781 42.9585 37.2781C42.9116 36.6536 43.3485 35.822 43.8257 35.6343C45.353 35.644 46.8802 35.6294 48.4075 35.644C48.7376 35.6472 49.1097 35.5874 49.3087 35.974C48.8751 36.4157 48.4787 36.8865 48.1373 37.401Z" fill="#264A3F"/>
<path d="M42.3945 23.4788C42.799 23.3154 43.2229 23.3607 43.6435 23.3591C44.9912 23.3575 46.3373 23.3591 47.6849 23.3591C47.905 23.7959 48.1234 24.2327 48.3434 24.6696C48.1088 24.8103 47.85 24.8136 47.5863 24.8136C46.0978 24.8087 44.611 24.8103 43.1226 24.8103C42.6599 24.4868 42.4334 24.0337 42.3945 23.4788Z" fill="#264A3F"/>
<path d="M42.1112 38.71C42.2746 38.9332 42.514 38.8523 42.7243 38.8523C44.3341 38.8588 45.9439 38.8556 47.552 38.8556C47.51 39.1403 47.4679 39.4251 47.4258 39.7082C47.3142 39.9687 47.1443 40.0787 46.8337 40.0755C45.1527 40.0561 43.4718 40.069 41.7908 40.0641C41.5886 40.0641 41.3233 40.1531 41.2715 39.8182C41.3508 39.2973 41.6274 38.9251 42.1112 38.71Z" fill="#264A3F"/>
<path d="M49.307 35.9741C49.0741 35.8268 48.8152 35.8268 48.5515 35.8268C47.1456 35.8301 45.7396 35.8317 44.3337 35.8252C44.1056 35.8236 43.8419 35.9174 43.672 35.6618C43.5669 35.1926 43.5944 34.7655 44.0474 34.4727C44.1088 34.8383 44.4001 34.7364 44.6201 34.7364C46.0665 34.7428 47.5144 34.738 48.9608 34.7412C49.54 34.7428 50.1224 34.7024 50.6919 34.8545C50.2858 35.2962 49.8005 35.6392 49.307 35.9741Z" fill="#264A3F"/>
<path d="M52.5352 17.1999C53.6224 16.564 54.6983 15.9055 55.8033 15.3004C56.2078 15.0788 56.6462 15.1662 56.897 15.6111C57.1559 16.0673 57.0378 16.4831 56.6058 16.7582C56.1512 17.0478 55.6642 17.2856 55.1918 17.5477C54.4556 17.6852 53.7163 17.6043 52.9801 17.5801C52.7617 17.572 52.5304 17.5024 52.5352 17.1999Z" fill="#264A3F"/>
<path d="M7.73982 16.8326C8.18797 16.9103 8.53743 17.1934 8.89659 17.4345C9.29459 17.7015 9.43049 18.1043 9.17001 18.5379C8.90468 18.978 8.49051 19.1155 8.02942 18.855C7.00045 18.271 5.98605 17.661 4.9668 17.0624C5.68675 16.5689 6.49568 16.81 7.27064 16.789C7.42433 16.7841 7.57803 16.8585 7.73982 16.8326Z" fill="#264A3F"/>
<path d="M5.32256 44.4535C6.20753 43.9341 7.08442 43.4018 7.9791 42.8987C8.45637 42.6301 8.94982 42.7644 9.17632 43.1915C9.43194 43.672 9.26206 44.0555 8.84465 44.3354C8.57932 44.5133 8.28326 44.6428 8.00013 44.7932C7.25429 44.9211 6.5036 44.8483 5.75615 44.8272C5.56039 44.8207 5.23034 44.8515 5.32256 44.4535Z" fill="#264A3F"/>
<path d="M55.5543 44.4373C55.9507 44.4777 56.2355 44.7544 56.5558 44.9404C57.0314 45.2155 57.156 45.7041 56.8972 46.1183C56.6108 46.5778 56.1756 46.636 55.7469 46.3998C54.8198 45.8901 53.9187 45.3352 53.0078 44.7981C53.0758 44.4195 53.3912 44.502 53.6258 44.4955C54.2697 44.4777 54.9137 44.4858 55.5543 44.4373Z" fill="#264A3F"/>
<path d="M55.5539 44.4374C55.2853 44.7318 54.9278 44.6364 54.5945 44.672C54.0671 44.7286 53.517 44.5085 53.009 44.7998C52.6789 44.6137 52.323 44.4632 52.0269 44.2319C51.671 43.9536 51.5836 43.5572 51.8441 43.1608C52.0916 42.7855 52.4589 42.6107 52.8812 42.8389C53.7952 43.3323 54.7288 43.7967 55.5539 44.4374Z" fill="#264A3F"/>
<path d="M5.32258 44.4534C5.40671 44.7721 5.67042 44.6491 5.8678 44.6621C6.57804 44.709 7.30123 44.5618 8.00014 44.7931C7.10708 45.3206 6.22049 45.8642 5.31611 46.3706C4.79353 46.6634 4.30979 46.5243 4.0752 46.0761C3.85032 45.6458 3.99431 45.2122 4.4829 44.9129C4.75471 44.7462 5.04269 44.6055 5.32258 44.4534Z" fill="#264A3F"/>
<path d="M7.7393 16.8324C7.49338 17.0395 7.20055 16.9295 6.93036 16.936C6.27351 16.9522 5.61504 16.9149 4.96627 17.0606C4.78831 16.9716 4.60064 16.8988 4.43561 16.7904C3.97452 16.491 3.84024 16.0186 4.10233 15.6044C4.39031 15.1498 4.81096 15.0996 5.25425 15.3213C6.12143 15.7598 6.92874 16.2985 7.7393 16.8324Z" fill="#264A3F"/>
<path d="M29.6728 2.77775C29.6663 2.27458 29.6453 1.77141 29.6566 1.26986C29.6696 0.726243 30.0239 0.360596 30.4995 0.360596C30.9752 0.360596 31.3295 0.724625 31.3424 1.26986C31.3554 1.77141 31.3343 2.2762 31.3279 2.77775C30.7762 3.05927 30.2245 3.05927 29.6728 2.77775Z" fill="#264A3F"/>
<path d="M52.5349 17.1997C52.674 17.4748 52.9297 17.4181 53.1659 17.4294C53.8421 17.4618 54.5265 17.3324 55.1914 17.5476C54.4666 17.9779 53.7499 18.4261 53.0138 18.8354C52.5381 19.0991 52.0414 18.9568 51.8198 18.5296C51.569 18.0475 51.7454 17.6754 52.1612 17.389C52.276 17.3097 52.4103 17.2612 52.5349 17.1997Z" fill="#264A3F"/>
<path d="M29.6729 59.5567C29.6729 58.8707 29.6729 58.1847 29.6729 57.4987C30.2245 57.2172 30.7762 57.2172 31.3279 57.4987C31.3279 58.1847 31.3279 58.8707 31.3279 59.5567C30.7762 59.8382 30.2245 59.8382 29.6729 59.5567Z" fill="#264A3F"/>
<path d="M15.5053 6.52816C15.3176 6.22076 15.104 5.92468 14.9503 5.6011C14.7368 5.1497 14.7885 4.71934 15.261 4.45724C15.7204 4.20322 16.133 4.33266 16.4032 4.76949C16.6863 5.22898 16.9209 5.71759 17.1765 6.19325C17.1765 6.49256 16.95 6.54434 16.7348 6.55728C16.3255 6.57993 15.913 6.64465 15.5053 6.52816Z" fill="#264A3F"/>
<path d="M44.7678 7.7416C44.5753 8.29654 44.2404 8.77706 43.9249 9.26081C43.6628 9.66367 43.2502 9.78987 42.8199 9.531C42.3766 9.26405 42.2601 8.85472 42.5076 8.38714C42.6759 8.07003 42.8814 7.77234 43.0706 7.46655C43.6223 7.64776 44.2387 7.41963 44.7678 7.7416Z" fill="#264A3F"/>
<path d="M18.0275 54.0977C17.7573 54.6656 17.4531 55.2157 17.0826 55.727C16.7574 55.6525 16.429 55.6153 16.0957 55.6072C15.845 55.6008 15.5764 55.5943 15.4502 55.3031C15.7026 54.7578 16.0051 54.2433 16.3465 53.7499C16.7688 53.4732 17.2331 53.5412 17.6845 53.6124C17.9239 53.6496 18.1617 53.7612 18.0275 54.0977Z" fill="#264A3F"/>
<path d="M15.4503 55.3032C15.8127 55.52 16.2123 55.4246 16.5974 55.4391C16.8158 55.4472 17.0439 55.4213 17.0811 55.7255C16.853 56.1445 16.6492 56.5781 16.3887 56.9778C16.1104 57.4033 15.6995 57.5198 15.2448 57.2625C14.7983 57.0117 14.7546 56.5959 14.9326 56.172C15.0653 55.8646 15.2756 55.5912 15.4503 55.3032Z" fill="#264A3F"/>
<path d="M45.6283 55.4423C45.7836 55.6979 45.9826 55.9357 46.0829 56.2108C46.2398 56.6444 46.1751 57.057 45.7108 57.2867C45.2659 57.5051 44.8744 57.3854 44.6123 56.9809C44.3534 56.5797 44.1463 56.1445 43.9166 55.7238C43.8794 55.431 44.08 55.3306 44.3033 55.2983C44.753 55.2352 45.2109 55.1737 45.6283 55.4423Z" fill="#264A3F"/>
<path d="M31.3276 4.23063C31.3325 4.63026 31.3632 5.02988 31.3373 5.42627C31.305 5.91973 30.9199 6.27243 30.4702 6.23199C29.9929 6.1883 29.692 5.91326 29.6629 5.42627C29.6386 5.02988 29.6677 4.62864 29.6726 4.22902C30.2243 3.95074 30.7759 3.95074 31.3276 4.23063Z" fill="#264A3F"/>
<path d="M31.3283 57.5002C30.7767 57.5002 30.225 57.5002 29.6733 57.5002C29.6684 57.1005 29.6377 56.7009 29.6636 56.3029C29.6927 55.8143 29.9952 55.5392 30.4709 55.4956C30.9206 55.4535 31.3057 55.8094 31.3381 56.3029C31.3639 56.6993 31.3332 57.1005 31.3283 57.5002Z" fill="#264A3F"/>
<path d="M45.6281 55.4422C45.2333 55.4422 44.8386 55.447 44.4438 55.439C44.2076 55.4341 44.0119 55.481 43.9148 55.7237C43.5443 55.2157 43.2482 54.6656 42.97 54.1042C42.9619 53.8146 43.1722 53.7353 43.3922 53.7127C43.8387 53.6673 44.295 53.6026 44.714 53.8486C45.0602 54.3566 45.3725 54.884 45.6281 55.4422Z" fill="#264A3F"/>
<path d="M43.9151 6.00394C44.059 5.53636 44.3648 5.15777 44.6124 4.75006C44.8647 4.33264 45.2627 4.22748 45.7093 4.4378C46.1283 4.63519 46.2788 5.10276 46.0636 5.57196C45.9487 5.82435 45.7756 6.04924 45.6284 6.28707C45.1349 6.46181 44.6382 6.35017 44.1448 6.29031C44.0073 6.27413 43.8698 6.19647 43.9151 6.00394Z" fill="#264A3F"/>
<path d="M15.5049 6.52811C15.8349 6.32911 16.1989 6.43427 16.5484 6.41324C16.7798 6.39868 17.0338 6.46016 17.1761 6.19482C17.5774 6.61548 17.7149 7.18984 18.0288 7.66065C18.1905 7.99394 17.9705 8.10557 17.7149 8.12984C17.2845 8.17029 16.8509 8.24633 16.4206 8.12337C16.1164 7.59108 15.8107 7.05879 15.5049 6.52811Z" fill="#264A3F"/>
<path d="M44.7138 53.8503C44.3174 53.8568 43.9227 53.8649 43.5263 53.8665C43.3047 53.8665 43.083 53.8568 42.9698 54.1059C42.8145 53.8519 42.6462 53.6044 42.5071 53.3423C42.2595 52.8763 42.376 52.4735 42.8096 52.2049C43.2642 51.9234 43.6719 52.0819 43.947 52.4994C44.2317 52.9297 44.4614 53.3989 44.7138 53.8503Z" fill="#264A3F"/>
<path d="M43.9152 6.00391C44.1061 6.27086 44.3892 6.15923 44.6319 6.16084C44.9716 6.16246 45.3033 6.18511 45.6285 6.28704C45.3939 6.80154 45.1189 7.29338 44.7694 7.73992C44.386 7.73992 44.0025 7.73507 43.6207 7.74154C43.3845 7.74639 43.1758 7.71404 43.0723 7.46488C43.2971 6.94715 43.5867 6.46501 43.9152 6.00391Z" fill="#264A3F"/>
<path d="M18.0276 54.0978C18.0018 53.7759 17.7785 53.7435 17.5229 53.7451C17.1313 53.75 16.7382 53.7484 16.3467 53.7484C16.578 53.3309 16.7851 52.8973 17.0472 52.501C17.3223 52.0835 17.7267 51.9217 18.183 52.2016C18.6182 52.467 18.7379 52.8715 18.492 53.3374C18.3545 53.5995 18.1846 53.8454 18.0276 54.0978Z" fill="#264A3F"/>
<path d="M29.6726 59.5566C30.2243 59.5566 30.776 59.5566 31.3277 59.5566C31.3326 59.898 31.3698 60.2426 31.3342 60.5808C31.2857 61.0629 30.9896 61.3606 30.4994 61.3606C30.0092 61.3606 29.7131 61.0629 29.6645 60.5808C29.6306 60.2426 29.6678 59.898 29.6726 59.5566Z" fill="#264A3F"/>
<path d="M16.4229 8.12166C16.7917 7.90162 17.201 8.00031 17.5942 7.98737C17.8272 7.97928 18.0504 7.98899 18.031 7.65894C18.2705 7.88059 18.3886 8.1799 18.5245 8.46304C18.7283 8.89016 18.5924 9.25581 18.2203 9.50497C17.8077 9.78001 17.3936 9.69265 17.1121 9.30597C16.8419 8.94032 16.6494 8.51966 16.4229 8.12166Z" fill="#264A3F"/>
<path d="M31.3279 4.23071C30.7762 4.23071 30.2245 4.23071 29.6729 4.23071C29.6729 3.74696 29.6729 3.26159 29.6729 2.77783C30.2245 2.77783 30.7762 2.77783 31.3279 2.77783C31.3279 3.26159 31.3279 3.74696 31.3279 4.23071Z" fill="#264A3F"/>
<path d="M13.5749 21.1863C13.7253 21.4646 13.7269 21.7445 13.5732 22.0227C13.5732 21.7428 13.5749 21.4646 13.5749 21.1863Z" fill="#264A3F"/>
<path d="M25.9115 31.2045C26.2788 31.7999 26.6444 32.3936 27.1395 33.1945C27.7672 32.4875 28.3383 31.8419 28.911 31.198C30.5871 31.1187 32.2649 31.1656 33.941 31.1737C34.2209 31.1753 34.504 31.2174 34.6933 31.4698C34.1044 32.1639 33.454 32.7965 32.7729 33.4C32.6208 33.5229 32.4445 33.5294 32.2584 33.5245C29.0922 33.4501 25.9277 33.4582 22.7615 33.5213C22.5771 33.5246 22.3991 33.5245 22.2373 33.421C21.8102 32.7496 21.3944 32.0733 21.0547 31.3517C21.485 31.1948 21.9283 31.3064 22.3652 31.2918C23.5462 31.2482 24.7321 31.3582 25.9115 31.2045Z" fill="#264A3F"/>
<path d="M22.2373 33.4194C22.8262 33.2511 23.4313 33.2867 24.0315 33.2867C26.1461 33.2867 28.259 33.2851 30.3736 33.2867C31.1744 33.2883 31.9785 33.243 32.7728 33.3983C32.2114 34.0471 31.6031 34.6506 30.9576 35.2136C30.702 35.4159 30.3994 35.4159 30.0969 35.4159C28.1102 35.4175 26.1234 35.4175 24.1351 35.4159C23.8325 35.4159 23.53 35.4142 23.2711 35.2201C22.9281 34.6215 22.5819 34.0196 22.2373 33.4194Z" fill="#264A3F"/>
<path d="M23.2725 35.2233C25.8335 35.2216 28.3962 35.2184 30.9573 35.2168C30.4364 35.8235 29.8701 36.3849 29.2666 36.9075C28.7554 37.0693 28.2296 36.9755 27.7119 36.9852C26.8091 37.0013 25.9047 36.9933 25.002 36.9884C24.7221 36.9868 24.4357 37.0013 24.2011 36.8007C23.8905 36.2733 23.5815 35.7475 23.2725 35.2233Z" fill="#264A3F"/>
<path d="M31.4521 28.6529C31.9375 28.1675 32.4229 27.6821 32.9082 27.1968C34.5018 27.3796 36.1019 27.2356 37.6987 27.2858C38.011 27.2955 38.3459 27.2259 38.6112 27.4751C38.2278 28.098 37.668 28.5558 37.1341 29.038C36.7846 29.1755 36.4206 29.1156 36.0614 29.1172C34.7785 29.1205 33.4955 29.135 32.2125 29.1075C31.8987 29.1011 31.4894 29.1642 31.4521 28.6529Z" fill="#264A3F"/>
<path d="M34.6934 31.4697C32.9946 31.2141 31.2845 31.4147 29.5825 31.3468C29.3528 31.337 29.0923 31.4406 28.9111 31.1979C29.3609 30.6786 29.8463 30.1948 30.364 29.7434C31.9867 29.9084 33.6159 29.7903 35.2418 29.8308C35.5573 29.8389 35.8922 29.7709 36.1624 30.012C35.7191 30.5459 35.2208 31.0216 34.6934 31.4697Z" fill="#264A3F"/>
<path d="M38.6112 27.4751C36.8995 27.4751 35.1862 27.4768 33.4745 27.4719C33.2512 27.4719 32.9616 27.5641 32.9082 27.1969C33.3515 26.7552 33.7932 26.3119 34.2365 25.8702C35.2978 25.7974 36.3607 25.8491 37.4237 25.8394C37.9058 25.8346 38.3863 25.8314 38.8636 25.7585C39.0965 26.3782 38.9849 26.9461 38.6112 27.4751Z" fill="#264A3F"/>
<path d="M24.1992 36.7992C25.6747 36.7992 27.1518 36.7992 28.6273 36.7959C28.8473 36.7959 29.0674 36.7846 29.2648 36.906C28.7745 37.4043 28.3167 37.9366 27.7893 38.3912C26.8266 39.2196 25.5129 39.0092 24.8334 37.9479C24.5988 37.5822 24.4095 37.1842 24.1992 36.7992Z" fill="#264A3F"/>
<path d="M25.9113 31.2044C25.8191 31.4244 25.6411 31.473 25.4227 31.4713C24.1203 31.4681 22.8163 31.473 21.514 31.4649C21.3603 31.4632 21.2082 31.3904 21.0545 31.35C20.7131 30.8549 20.5853 30.3275 20.8021 29.745C22.2242 29.8923 23.6463 29.8858 25.0684 29.7434C25.468 30.1608 25.5667 30.7546 25.9113 31.2044Z" fill="#264A3F"/>
<path d="M36.1607 30.0121C34.4782 30.0137 32.7956 30.0154 31.113 30.0186C30.8266 30.0186 30.5484 30.0121 30.3623 29.7435C30.7247 29.3795 31.0887 29.0171 31.4511 28.6531C31.5789 28.9686 31.8556 28.9281 32.1145 28.9281C33.5544 28.9281 34.9943 28.9281 36.4342 28.9281C36.6736 28.9281 36.9163 28.9022 37.1347 29.0381C36.8516 29.4054 36.5248 29.7274 36.1607 30.0121Z" fill="#264A3F"/>
<path d="M25.0665 29.7435C24.9532 30.0315 24.7057 30.0185 24.4581 30.0185C23.4098 30.0169 22.3614 30.0185 21.313 30.0169C21.0978 30.0169 20.8471 30.0703 20.8018 29.7451C20.9457 28.8439 21.5347 28.3472 22.3598 28.1175C23.2091 27.8813 24.12 28.2323 24.6377 28.9636C24.8076 29.2047 24.9257 29.483 25.0665 29.7435Z" fill="#264A3F"/>
<path d="M38.8628 25.7585C38.8369 25.9558 38.7172 26.0222 38.5295 26.0222C37.1818 26.0189 35.8341 26.0206 34.4865 26.0108C34.4023 26.0108 34.3198 25.9202 34.2373 25.8701C34.6304 25.4689 35.0026 25.045 35.4183 24.6696C36.5282 23.6697 38.5619 24.2069 38.8628 25.7585Z" fill="#264A3F"/>
</g>
<defs>
<clipPath id="clip0_286_742">
<rect width="61" height="61" fill="white" transform="translate(0 0.360596)"/>
</clipPath>
</defs>
</svg>
