<svg width="54" height="54" viewBox="0 0 54 54" fill="none" xmlns="http://www.w3.org/2000/svg">
<g clip-path="url(#clip0_286_846)">
<path d="M13.25 5.32935C13.25 6.5086 13.0049 7.62822 12.561 8.64185H23.1875C23.6268 8.64185 24.048 8.81634 24.3586 9.12695C24.6693 9.43756 24.8438 9.85883 24.8438 10.2981V16.9231H23.1875C22.2476 16.923 21.3185 17.123 20.4618 17.5096C19.6051 17.8963 18.8405 18.4608 18.2188 19.1657C17.1886 20.335 16.5625 21.8687 16.5625 23.5481V25.2043H9.9375C9.49823 25.2043 9.07696 25.0299 8.76635 24.7192C8.45575 24.4086 8.28125 23.9874 8.28125 23.5481V12.9216C6.71838 13.6034 4.98313 13.7862 3.3125 13.445V23.5481C3.3125 25.3052 4.01049 26.9902 5.25292 28.2327C6.49535 29.4751 8.18044 30.1731 9.9375 30.1731H16.5625V36.7981C16.5579 38.0626 16.9171 39.3017 17.5972 40.3677C18.2773 41.4337 19.2497 42.2816 20.3984 42.8103C19.4134 38.8108 19.8127 34.5955 21.5312 30.8522V23.5481C21.5312 23.1088 21.7057 22.6876 22.0164 22.3769C22.327 22.0663 22.7482 21.8918 23.1875 21.8918H30.4949C34.2382 20.1733 38.4535 19.774 42.453 20.759C41.9173 19.6143 41.0668 18.6457 40.001 17.9664C38.9352 17.2872 37.698 16.9253 36.4342 16.9231H29.8092V10.2981C29.8092 8.54104 29.1112 6.85594 27.8688 5.61351C26.6263 4.37108 24.9412 3.6731 23.1842 3.6731H13.0844C13.1948 4.20972 13.25 4.7618 13.25 5.32935ZM9.9375 5.32935C9.9375 6.64714 9.41401 7.91096 8.48219 8.84278C7.55037 9.7746 6.28654 10.2981 4.96875 10.2981C3.65096 10.2981 2.38713 9.7746 1.45531 8.84278C0.523492 7.91096 0 6.64714 0 5.32935C0 4.01155 0.523492 2.74773 1.45531 1.81591C2.38713 0.884088 3.65096 0.360596 4.96875 0.360596C6.28654 0.360596 7.55037 0.884088 8.48219 1.81591C9.41401 2.74773 9.9375 4.01155 9.9375 5.32935ZM46.375 5.32935C46.375 6.64714 45.8515 7.91096 44.9197 8.84278C43.9879 9.7746 42.724 10.2981 41.4062 10.2981C40.0885 10.2981 38.8246 9.7746 37.8928 8.84278C36.961 7.91096 36.4375 6.64714 36.4375 5.32935C36.4375 4.01155 36.961 2.74773 37.8928 1.81591C38.8246 0.884088 40.0885 0.360596 41.4062 0.360596C42.724 0.360596 43.9879 0.884088 44.9197 1.81591C45.8515 2.74773 46.375 4.01155 46.375 5.32935ZM9.9375 41.7668C9.9375 43.0846 9.41401 44.3485 8.48219 45.2803C7.55037 46.2121 6.28654 46.7356 4.96875 46.7356C3.65096 46.7356 2.38713 46.2121 1.45531 45.2803C0.523492 44.3485 0 43.0846 0 41.7668C0 40.4491 0.523492 39.1852 1.45531 38.2534C2.38713 37.3216 3.65096 36.7981 4.96875 36.7981C6.28654 36.7981 7.55037 37.3216 8.48219 38.2534C9.41401 39.1852 9.9375 40.4491 9.9375 41.7668ZM38.0938 53.3606C42.0471 53.3606 45.8386 51.7901 48.6341 48.9947C51.4295 46.1992 53 42.4077 53 38.4543C53 34.501 51.4295 30.7095 48.6341 27.914C45.8386 25.1186 42.0471 23.5481 38.0938 23.5481C34.1404 23.5481 30.3489 25.1186 27.5534 27.914C24.758 30.7095 23.1875 34.501 23.1875 38.4543C23.1875 42.4077 24.758 46.1992 27.5534 48.9947C30.3489 51.7901 34.1404 53.3606 38.0938 53.3606ZM35.1258 32.1738L32.1544 35.1418H37.2656C39.6816 35.1418 41.9986 36.1016 43.7069 37.8099C45.4153 39.5183 46.375 41.8353 46.375 44.2512V45.0793C46.375 45.5186 46.2005 45.9399 45.8899 46.2505C45.5793 46.5611 45.158 46.7356 44.7188 46.7356C44.2795 46.7356 43.8582 46.5611 43.5476 46.2505C43.237 45.9399 43.0625 45.5186 43.0625 45.0793V44.2512C43.0625 42.7138 42.4518 41.2393 41.3646 40.1522C40.2775 39.0651 38.8031 38.4543 37.2656 38.4543H32.1544L35.1258 41.4223C35.4367 41.7333 35.6115 42.1552 35.6115 42.595C35.6115 43.0348 35.4367 43.4566 35.1258 43.7676C34.8148 44.0786 34.3929 44.2533 33.9531 44.2533C33.5133 44.2533 33.0915 44.0786 32.7805 43.7676L26.977 37.9608C26.6694 37.6496 26.4974 37.2293 26.4987 36.7918C26.4999 36.3542 26.6743 35.9349 26.9836 35.6255L32.7805 29.8286C33.0915 29.5176 33.5133 29.3429 33.9531 29.3429C34.3929 29.3429 34.8148 29.5176 35.1258 29.8286C35.4367 30.1396 35.6115 30.5614 35.6115 31.0012C35.6115 31.441 35.4367 31.8628 35.1258 32.1738Z" fill="#264A3F"/>
</g>
<defs>
<clipPath id="clip0_286_846">
<rect width="53" height="53" fill="white" transform="translate(0.5 0.360596)"/>
</clipPath>
</defs>
</svg>
