<svg width="57" height="60" viewBox="0 0 57 60" fill="none" xmlns="http://www.w3.org/2000/svg">
<g clip-path="url(#clip0_286_719)">
<path d="M0.000198768 29.8309C0.0160674 15.5551 9.92442 3.30273 23.4619 0.822347C38.9005 -2.00651 53.5758 8.44103 56.4908 24.3474C57.2874 28.6983 57.1557 33.0263 56.0528 37.3115C55.9465 37.7241 55.9703 38.084 56.1084 38.495C59.2393 47.7492 53.479 57.6641 44.126 59.1616C41.6092 59.5643 39.1607 59.3177 36.7677 58.4432C36.4155 58.315 36.1028 58.3068 35.7395 58.3956C24.9837 61.0124 15.6339 58.3233 7.87896 50.1852C3.48018 45.5696 1.01103 39.8921 0.223946 33.4454C0.076368 32.2455 -0.00456181 31.0407 0.000198768 29.8309Z" fill="#264A3F"/>
<path d="M33.605 56.8869C29.8092 57.6414 26.123 57.5477 22.4462 56.6864C22.1479 56.6157 22.0257 56.4661 21.9479 56.1752C21.6306 54.9719 21.2497 53.7852 20.9704 52.5721C20.7721 51.7124 20.9847 50.81 20.8847 49.9405C20.7229 48.5252 21.0847 47.3565 22.086 46.3572C22.5811 45.864 22.9302 45.2197 23.3983 44.6921C24.2901 43.6877 24.8979 42.5634 25.0883 41.1909C25.1867 40.4874 25.4216 39.8036 25.585 39.1083C25.7691 38.321 25.4549 37.8476 24.6678 37.7276C22.8096 37.4449 20.953 37.1539 19.0916 36.9024C18.7266 36.8531 18.5393 36.6937 18.3664 36.388C17.6682 35.1502 16.9303 33.9372 16.2479 32.6912C15.9607 32.1669 15.5767 31.8858 15.026 31.7296C13.198 31.2118 11.381 30.6497 9.55296 30.1253C9.26257 30.0415 9.07056 29.8919 8.9087 29.6388C7.95024 28.1348 6.98225 26.6374 6.01903 25.1366C5.8413 24.8588 6.00633 23.6474 6.24595 23.4945C6.41257 23.3877 6.54745 23.5323 6.68233 23.5997C7.39166 23.9597 8.09464 24.3345 8.80397 24.6961C9.75132 25.1794 10.2623 24.9295 10.4749 23.871C10.7098 22.7088 10.9557 21.55 11.1493 20.3797C11.2239 19.9326 11.4144 19.737 11.8253 19.5973C15.1101 18.4828 18.3822 17.3338 21.667 16.2161C22.1796 16.0419 22.5668 15.7674 22.8969 15.3269C23.9902 13.8722 25.1169 12.4421 26.2261 11.0006C26.8291 10.2165 26.7085 9.64448 25.8405 9.18917C24.6075 8.54154 23.392 7.84624 22.1272 7.27587C21.0022 6.76796 20.1199 6.0365 19.4232 4.99602C18.8726 4.17251 18.8282 4.18402 19.7454 3.8602C25.6834 1.76445 31.6119 1.79239 37.6769 3.99334C36.9041 4.35825 36.2566 4.72809 35.5679 4.96972C34.7333 5.2623 34.2286 5.80473 33.8859 6.63317C33.4654 7.64735 32.9528 8.62044 32.464 9.60175C32.2006 10.131 32.2593 10.5831 32.6751 10.9907C32.8179 11.1321 32.9385 11.3046 33.0988 11.4214C34.0271 12.0986 34.3667 13.0026 34.2144 14.1664C34.1667 14.5296 34.1064 14.8091 33.843 15.0754C32.5132 16.4232 31.2088 17.7974 29.8854 19.1502C29.549 19.4953 29.4014 19.8734 29.4728 20.3649C29.7823 22.5116 30.0901 24.6567 30.3742 26.8067C30.436 27.2735 30.6296 27.5956 30.9883 27.8669C31.9769 28.6164 32.9512 29.3857 33.9605 30.1714C29.3221 33.3076 26.7307 37.698 26.6514 43.4198C26.5704 49.1186 29.0237 53.5698 33.605 56.8869Z" fill="#FEFEFE"/>
<path d="M51.1314 31.2708C49.324 29.8457 47.4198 28.8891 45.3172 28.3614C42.5814 27.676 39.8774 27.8075 37.2036 28.6885C36.2848 28.991 35.4406 29.0452 34.6805 28.2842C34.3853 27.9883 34.0219 27.7648 33.6871 27.5083C32.1637 26.3429 32.1748 26.3413 31.9431 24.3935C31.813 23.2987 31.6543 22.2089 31.4877 21.1208C31.4115 20.6211 31.502 20.243 31.8812 19.8683C33.1111 18.6519 34.2838 17.3731 35.5088 16.1518C35.9452 15.7179 36.142 15.256 36.1055 14.6314C36.0658 13.9377 36.0674 13.2375 36.1055 12.5422C36.1372 11.9587 35.9309 11.5362 35.5342 11.1351C34.4012 9.9944 34.49 10.0158 35.0772 8.53805C35.5453 7.36279 36.28 6.65763 37.421 6.26806C38.2049 6.00014 38.9507 5.60235 39.6965 5.23087C39.9806 5.08951 40.198 5.11088 40.4677 5.25553C46.547 8.52326 50.8458 13.4479 53.3372 20.0606C54.1814 22.3026 54.6686 24.6334 54.9589 27.0136C55.0066 27.4048 54.9399 27.6431 54.5257 27.8009C53.6926 28.1182 52.8944 28.5307 52.0693 28.871C51.5424 29.088 51.2901 29.443 51.279 30.0315C51.2711 30.4112 51.1917 30.7892 51.1314 31.2708Z" fill="#264A3F"/>
<path d="M7.59955 36.945C7.97405 35.1813 7.29488 33.766 6.28722 32.4165C5.62391 31.5273 5.03995 30.5706 4.47027 29.6123C3.9228 28.6935 3.31662 27.8568 2.36292 27.3522C2.13441 27.2306 2.03761 27.0843 2.06935 26.7703C2.5946 21.7652 4.34332 17.2581 7.26155 13.2507C9.76562 9.81034 12.8997 7.13271 16.6288 5.20626C16.9414 5.04517 17.0937 5.07476 17.3016 5.37228C17.7412 6.00182 18.2474 6.58206 18.6965 7.20339C19.109 7.77212 19.601 8.19456 20.2357 8.49536C21.4211 9.05916 22.5684 9.70843 23.7443 10.292C24.0934 10.4662 24.1283 10.5977 23.8823 10.9084C23.054 11.9521 22.2479 13.014 21.437 14.0725C21.2767 14.2829 21.0466 14.3372 20.8229 14.4144C17.4127 15.5913 14.0073 16.7847 10.5892 17.9369C9.90843 18.1671 9.52441 18.5238 9.42286 19.2832C9.29908 20.2119 9.06105 21.1241 8.91347 22.0512C8.85 22.4506 8.71988 22.4671 8.41361 22.301C7.69477 21.9115 6.96957 21.5367 6.23803 21.1734C5.53029 20.8217 5.01139 21.0502 4.75114 21.826C4.4544 22.7153 4.18622 23.616 3.8863 24.5036C3.74825 24.9096 3.80379 25.2565 4.03071 25.6066C5.25259 27.4936 6.47288 29.3839 7.68366 31.2791C7.8836 31.5914 8.14385 31.7492 8.48661 31.8495C10.3496 32.3919 12.2014 32.9672 14.0676 33.4965C14.45 33.605 14.6785 33.8039 14.869 34.1392C15.61 35.4459 16.3765 36.7363 17.1144 38.0447C17.3556 38.472 17.6682 38.6791 18.149 38.7433C19.7914 38.9602 21.4274 39.2331 23.0698 39.455C23.4682 39.5092 23.4443 39.6621 23.4158 40.0155C23.2492 42.0356 21.9813 43.4065 20.8403 44.8596C20.3166 45.5269 19.8009 46.2009 19.2773 46.8666C19.0805 47.1164 18.9932 47.3909 18.9948 47.7147C19.0027 49.273 18.9551 50.8312 19.0138 52.3862C19.0503 53.3692 19.5026 54.2748 19.7105 55.2299C19.747 55.4008 19.9168 55.5964 19.7755 55.7476C19.6041 55.9301 19.4026 55.7295 19.2328 55.6704C17.3334 55.0079 17.3349 55.003 16.7065 53.0585C15.9052 50.5748 15.0959 48.0944 14.3104 45.6042C14.158 45.1209 13.9168 44.7774 13.4567 44.5818C13.1107 44.4338 12.7997 44.184 12.4442 44.0722C10.1607 43.3539 9.01186 41.3847 7.72968 39.5536C7.59955 39.3679 7.59797 39.1756 7.59797 38.9717C7.59955 38.2978 7.59955 37.6222 7.59955 36.945Z" fill="#264A3F"/>
<path d="M41.8013 57.4309C34.47 57.4506 28.505 51.3063 28.4796 43.709C28.4558 36.0854 34.3621 29.8754 41.6664 29.8458C49.104 29.8162 55.096 35.9309 55.1102 43.5644C55.1245 51.2389 49.2008 57.4111 41.8013 57.4309Z" fill="#FEFEFE"/>
<path d="M1.89974 29.5056C2.22822 29.573 2.28852 29.79 2.39325 29.9511C3.41678 31.5323 4.43078 33.1202 5.45907 34.6965C5.63362 34.9644 5.70662 35.2324 5.70344 35.5529C5.69075 36.8235 5.70979 38.0925 5.69234 39.3631C5.68599 39.8167 5.79707 40.1915 6.06842 40.5515C6.72538 41.4226 7.38552 42.2938 7.98217 43.2094C8.54075 44.0674 9.23897 44.6937 10.1625 45.1013C10.9591 45.4531 11.9033 45.7358 12.4317 46.3653C12.9602 46.9932 13.0585 48.0107 13.3362 48.8622C13.771 50.1985 14.1979 51.5382 14.6279 52.8762C14.6708 53.0093 14.7581 53.1342 14.6978 53.2854C12.3064 52.5014 7.3871 47.2513 5.23532 43.1864C2.98674 38.9406 1.87753 34.4006 1.89974 29.5056Z" fill="#FEFEFE"/>
<path d="M54.6164 35.1601C54.0467 34.4253 53.5595 33.7892 53.0628 33.1596C52.9518 33.0183 52.9311 32.872 52.9454 32.7043C52.9676 32.4397 52.9533 32.1668 53.0121 31.912C53.1168 31.4567 52.8819 30.8371 53.2326 30.5658C53.7515 30.1664 54.418 29.9757 55.0591 29.6782C55.1527 30.6694 55.0416 31.5619 54.9639 32.4512C54.8877 33.3257 54.7433 34.1903 54.6164 35.1601Z" fill="#FDFEFE"/>
<path d="M41.79 52.4964C39.3558 52.4964 36.9215 52.498 34.4873 52.4948C33.559 52.4931 33.2479 52.1677 33.2479 51.1995C33.2464 47.4682 33.2511 43.7386 33.2432 40.0073C33.2416 39.6211 33.3209 39.2907 33.5495 38.9784C34.4333 37.7702 35.3109 36.5555 36.1741 35.3326C36.4439 34.9512 36.7739 34.7786 37.231 34.7803C40.2777 34.7885 43.3261 34.7885 46.3744 34.7803C46.8045 34.7786 47.133 34.9282 47.3916 35.2915C48.2739 36.5276 49.1641 37.7554 50.0544 38.9849C50.2638 39.2742 50.3527 39.5898 50.3527 39.9564C50.3448 43.7287 50.3495 47.4995 50.3464 51.2718C50.3464 52.1512 50.0115 52.4915 49.153 52.4931C46.6966 52.498 44.2433 52.4964 41.79 52.4964Z" fill="#264A3F"/>
<path d="M41.7927 50.5273C39.7551 50.5273 37.7192 50.5174 35.6817 50.5355C35.285 50.5388 35.1326 50.4467 35.1358 49.998C35.1548 47.0689 35.1517 44.1398 35.139 41.2106C35.1374 40.8244 35.2247 40.6666 35.6293 40.6797C36.5782 40.7077 37.5272 40.7027 38.4761 40.6814C38.8332 40.6731 38.9665 40.7767 38.9538 41.163C38.9284 41.9405 38.9395 42.7196 38.949 43.4987C38.9585 44.2663 39.2981 44.6164 40.0487 44.6214C41.2151 44.6296 42.383 44.6296 43.5493 44.6214C44.2967 44.6164 44.6347 44.2647 44.6443 43.4938C44.6538 42.7146 44.6569 41.9372 44.6411 41.158C44.6347 40.8342 44.6998 40.6731 45.0616 40.6814C46.0502 40.7027 47.0388 40.7027 48.0274 40.6814C48.3829 40.6731 48.4527 40.826 48.4511 41.1547C48.4416 44.125 48.4353 47.0952 48.4559 50.0654C48.4591 50.5404 48.2258 50.5322 47.9053 50.5306C45.8677 50.5256 43.8302 50.5273 41.7927 50.5273Z" fill="#264A3F"/>
<path d="M36.1055 38.7203C36.5546 38.0924 36.9417 37.5796 37.2972 37.0437C37.5194 36.71 37.8272 36.7511 38.1414 36.7511C39.814 36.7495 39.8092 36.7462 39.2332 38.4031C39.1538 38.6332 39.0554 38.7285 38.8174 38.7236C38.1271 38.7104 37.4353 38.7187 36.745 38.7203C36.5688 38.7203 36.3943 38.7203 36.1055 38.7203Z" fill="#264A3F"/>
<path d="M47.4888 38.7202C46.5145 38.7202 45.6671 38.7219 44.8197 38.7186C44.6499 38.7186 44.4563 38.7613 44.3976 38.5033C44.2833 38.0069 44.1643 37.5137 44.0374 37.0206C43.9723 36.7708 44.104 36.7494 44.2849 36.7511C44.7975 36.756 45.3116 36.7576 45.8242 36.7511C46.0305 36.7478 46.1542 36.8645 46.2622 37.0157C46.6478 37.5499 47.0318 38.0874 47.4888 38.7202Z" fill="#264A3F"/>
<path d="M42.7452 41.6871C42.7452 42.6553 42.7452 42.6553 41.8248 42.6553C40.8457 42.6553 40.8457 42.6553 40.8457 41.6263C40.8457 40.6877 40.8457 40.6877 41.7359 40.6877C41.755 40.6877 41.7756 40.6877 41.7946 40.6877C42.7452 40.6877 42.7452 40.6877 42.7452 41.6871Z" fill="#FEFEFE"/>
<path d="M42.4548 38.6694C41.0854 38.8387 41.0854 38.8387 41.4075 37.5188C41.4265 37.4399 41.4218 37.3495 41.4567 37.2821C41.5551 37.0931 41.444 36.7446 41.8121 36.7561C42.139 36.766 42.0708 37.0734 42.1232 37.2575C42.2581 37.7194 42.3469 38.196 42.4548 38.6694Z" fill="#FCFDFD"/>
<path d="M42.7121 49.5425C42.1202 49.5425 41.5267 49.5524 40.9348 49.5393C40.289 49.5261 39.8891 49.1283 39.8986 48.5399C39.9097 47.9728 40.2969 47.5865 40.911 47.5799C42.1345 47.5668 43.3595 47.5668 44.5846 47.5799C45.1971 47.5865 45.5843 47.9794 45.5907 48.5464C45.597 49.1333 45.1955 49.5278 44.5481 49.5393C43.9372 49.5524 43.3246 49.5425 42.7121 49.5425Z" fill="#264A3F"/>
<path d="M37.521 49.5441C36.5371 49.5441 36.1103 49.2532 36.1007 48.5743C36.0912 47.8905 36.5292 47.5766 37.4924 47.575C37.5718 47.575 37.6495 47.575 37.7289 47.575C38.5302 47.5799 38.9523 47.9284 38.9428 48.5743C38.9333 49.1957 38.5175 49.5359 37.7574 49.5425C37.6781 49.5441 37.5987 49.5441 37.521 49.5441Z" fill="#264A3F"/>
</g>
<defs>
<clipPath id="clip0_286_719">
<rect width="57" height="59" fill="white" transform="translate(0 0.360596)"/>
</clipPath>
</defs>
</svg>
