<svg width="31" height="30" viewBox="0 0 31 30" fill="none" xmlns="http://www.w3.org/2000/svg">
<path d="M9.37435 0.27832H21.6243C26.291 0.27832 30.0827 4.06999 30.0827 8.73665V20.9867C30.0827 23.2299 29.1915 25.3814 27.6053 26.9676C26.019 28.5538 23.8676 29.445 21.6243 29.445H9.37435C4.70768 29.445 0.916016 25.6533 0.916016 20.9867V8.73665C0.916016 6.49336 1.80716 4.34195 3.3934 2.75571C4.97965 1.16946 7.13106 0.27832 9.37435 0.27832ZM9.08268 3.19499C7.6903 3.19499 6.35494 3.74811 5.37037 4.73268C4.38581 5.71724 3.83268 7.0526 3.83268 8.44499V21.2783C3.83268 24.1804 6.1806 26.5283 9.08268 26.5283H21.916C23.3084 26.5283 24.6438 25.9752 25.6283 24.9906C26.6129 24.0061 27.166 22.6707 27.166 21.2783V8.44499C27.166 5.5429 24.8181 3.19499 21.916 3.19499H9.08268ZM23.1556 5.38249C23.6391 5.38249 24.1027 5.57454 24.4446 5.91641C24.7865 6.25827 24.9785 6.72194 24.9785 7.2054C24.9785 7.68887 24.7865 8.15254 24.4446 8.4944C24.1027 8.83626 23.6391 9.02832 23.1556 9.02832C22.6721 9.02832 22.2085 8.83626 21.8666 8.4944C21.5247 8.15254 21.3327 7.68887 21.3327 7.2054C21.3327 6.72194 21.5247 6.25827 21.8666 5.91641C22.2085 5.57454 22.6721 5.38249 23.1556 5.38249ZM15.4993 7.56999C17.4332 7.56999 19.2879 8.33821 20.6553 9.70567C22.0228 11.0731 22.791 12.9278 22.791 14.8617C22.791 16.7955 22.0228 18.6502 20.6553 20.0176C19.2879 21.3851 17.4332 22.1533 15.4993 22.1533C13.5655 22.1533 11.7108 21.3851 10.3434 20.0176C8.97591 18.6502 8.20768 16.7955 8.20768 14.8617C8.20768 12.9278 8.97591 11.0731 10.3434 9.70567C11.7108 8.33821 13.5655 7.56999 15.4993 7.56999ZM15.4993 10.4867C14.339 10.4867 13.2262 10.9476 12.4058 11.7681C11.5853 12.5885 11.1243 13.7013 11.1243 14.8617C11.1243 16.022 11.5853 17.1348 12.4058 17.9552C13.2262 18.7757 14.339 19.2367 15.4993 19.2367C16.6597 19.2367 17.7725 18.7757 18.5929 17.9552C19.4134 17.1348 19.8743 16.022 19.8743 14.8617C19.8743 13.7013 19.4134 12.5885 18.5929 11.7681C17.7725 10.9476 16.6597 10.4867 15.4993 10.4867Z" fill="white"/>
</svg>
