<svg width="35" height="36" viewBox="0 0 35 36" fill="none" xmlns="http://www.w3.org/2000/svg">
<path d="M27.7083 4.73535C28.4819 4.73535 29.2237 5.04264 29.7707 5.58962C30.3177 6.1366 30.625 6.87847 30.625 7.65202V28.0687C30.625 28.8422 30.3177 29.5841 29.7707 30.1311C29.2237 30.6781 28.4819 30.9854 27.7083 30.9854H7.29167C6.51812 30.9854 5.77625 30.6781 5.22927 30.1311C4.68229 29.5841 4.375 28.8422 4.375 28.0687V7.65202C4.375 6.87847 4.68229 6.1366 5.22927 5.58962C5.77625 5.04264 6.51812 4.73535 7.29167 4.73535H27.7083ZM26.9792 27.3395V19.6104C26.9792 18.3495 26.4783 17.1402 25.5867 16.2486C24.6951 15.3571 23.4859 14.8562 22.225 14.8562C20.9854 14.8562 19.5417 15.6145 18.8417 16.752V15.1333H14.7729V27.3395H18.8417V20.1499C18.8417 19.027 19.7458 18.1083 20.8688 18.1083C21.4102 18.1083 21.9295 18.3234 22.3124 18.7063C22.6953 19.0891 22.9104 19.6085 22.9104 20.1499V27.3395H26.9792ZM10.0333 12.8437C10.6831 12.8437 11.3063 12.5856 11.7657 12.1261C12.2252 11.6666 12.4833 11.0435 12.4833 10.3937C12.4833 9.03744 11.3896 7.9291 10.0333 7.9291C9.37969 7.9291 8.75281 8.18876 8.29061 8.65096C7.82841 9.11316 7.56875 9.74004 7.56875 10.3937C7.56875 11.7499 8.67708 12.8437 10.0333 12.8437ZM12.0604 27.3395V15.1333H8.02083V27.3395H12.0604Z" fill="white"/>
</svg>
