<svg width="35" height="36" viewBox="0 0 35 36" fill="none" xmlns="http://www.w3.org/2000/svg">
<path d="M3.64648 17.859C3.64648 11.3286 3.64648 8.06197 5.67503 6.03342C7.70357 4.00488 10.9688 4.00488 17.5021 4.00488C24.0325 4.00488 27.2977 4.00488 29.3263 6.03342C31.3548 8.06197 31.3548 11.3272 31.3548 17.859C31.3548 24.3895 31.3548 27.6561 29.3263 29.6847C27.2977 31.7132 24.0325 31.7132 17.5007 31.7132C10.9702 31.7132 7.70503 31.7132 5.67503 29.6847C3.64794 27.6547 3.64648 24.3909 3.64648 17.859Z" stroke="white" stroke-width="2.1875" stroke-linecap="round" stroke-linejoin="round"/>
<path d="M10.209 25.1507L16.3252 19.0359M16.3252 19.0359L10.209 10.5674H14.2588L18.6775 16.6836L24.7923 10.5674M16.3252 19.0359L20.7411 25.1507H24.7923L18.6775 16.6822" stroke="white" stroke-width="2.1875" stroke-linecap="round" stroke-linejoin="round"/>
</svg>
