<svg width="1441" height="492" viewBox="0 0 1441 492" fill="none" xmlns="http://www.w3.org/2000/svg">
<g clip-path="url(#clip0_2132_5942)">
<rect width="1441" height="492" fill="white"/>
<path d="M-24 34C73.6667 97.5 311.483 191.236 503.5 160.5C794 114 1107.5 169.5 1430.5 473" stroke="#EAEFF3" stroke-width="2" stroke-linecap="round" stroke-linejoin="round"/>
<path d="M-28 -3C69.6667 60.5 307.483 154.236 499.5 123.5C790 77 1103.5 132.5 1426.5 436" stroke="#EAEFF3" stroke-width="2" stroke-linecap="round" stroke-linejoin="round"/>
<path d="M16 -17C113.667 46.5 351.483 140.236 543.5 109.5C834 63 1147.5 118.5 1470.5 422" stroke="#EAEFF3" stroke-width="2" stroke-linecap="round" stroke-linejoin="round"/>
<path d="M-428 72C-305.343 169.523 3 227.499 182 159.499C361 91.4986 422.5 86.0004 488.5 85.999C646.516 85.9957 874 106 1209 333.5" stroke="#EAEFF3" stroke-width="2" stroke-linecap="round" stroke-linejoin="round"/>
<path d="M49 34C171.657 131.523 480 189.499 659 121.499C838 53.4986 899.5 48.0004 965.5 47.999C1123.52 47.9957 1351 68 1686 295.5" stroke="#EAEFF3" stroke-width="2" stroke-linecap="round" stroke-linejoin="round"/>
</g>
<defs>
<clipPath id="clip0_2132_5942">
<rect width="1441" height="492" fill="white"/>
</clipPath>
</defs>
</svg>
